{"title":"The Invisible Woman 2013 BRRip XviD titler","uid":9842262,"size":1233107085,"categoryP":"video","categoryS":"movies","magnet":"?xt=urn:btih:83171ee83eddb3886ac0613c26b4e94d250963e3&amp;dn=The+Invisible+Woman+2013+BRRip+XviD+titler&amp;tr=udp%3A%2F%2Ftracker.openbittorrent.com%3A80&amp;tr=udp%3A%2F%2Fopen.demonii.com%3A1337&amp;tr=udp%3A%2F%2Ftracker.coppersurfer.tk%3A6969&amp;tr=udp%3A%2F%2Fexodus.desync.com%3A6969","seeders":2,"leechers":0,"uploader":"movieZ.freak","files":5,"time":1396006246,"description":"SOURCE: The Invisible Woman 2013 LIMITED 720p BluRay x264 - GECKOS\n\n\n &lt;a href=&quot;\nhttp://www.imdb.com/title/tt1700845/&quot; rel=&quot;nofollow&quot; target=&quot;_NEW&quot;&gt;\nhttp://www.imdb.com/title/tt1700845/&lt;/a&gt;\n\n\n &lt;a href=&quot;\nhttp://www.rottentomatoes.com/m/771357233/&quot; rel=&quot;nofollow&quot; target=&quot;_NEW&quot;&gt;\nhttp://www.rottentomatoes.com/m/771357233/&lt;/a&gt;\n\n\n &lt;a href=&quot;\nhttp://en.wikipedia.org/wiki/The_Invisible_Woman_%282013_film%29&quot; rel=&quot;nofollow&quot; target=&quot;_NEW&quot;&gt;\nhttp://en.wikipedia.org/wiki/The_Invisible_Woman_%282013_film%29&lt;/a&gt;\n\n\n\n\n- SAMPLE: Yes\n\n\n- SUBTITLE: English\n\n\n- LANGUAGE / AUDIO: English\n\n\n\n\nSCREENSHOTS:\n-------------------    &lt;a href=&quot;\nhttp://someimage.com/14ET&quot; rel=&quot;nofollow&quot; target=&quot;_NEW&quot;&gt;\nhttp://someimage.com/14ET&lt;/a&gt;\n\n\n\nDIRECTOR: Ralph Fiennes\n\n\n\nCAST: Ralph Fiennes, Kristin Scott Thomas, Felicity Jones, John Kavanagh, Tom Burke, Tom Hollander,...\n\n\n\nPLOT:\n-----------\nNelly (Felicity Jones), a happily-married mother and schoolteacher, is haunted by her past. Her memories, provoked by remorse and guilt, take us back in time to follow the story of her relationship with Charles Dickens (Ralph Fiennes) with whom she discovered an exciting but fragile complicity. Dickens - famous, controlling and emotionally isolated within his success - falls for Nelly, who comes from a family of actors. The theatre is a vital arena for Dickens - a brilliant amateur actor - a man more emotionally coherent on the page or on stage, than in life. As Nelly becomes the focus of Dickens' passion and his muse, for both of them secrecy is the price, and for Nelly a life of &quot;invisibility&quot;.\n\n\n************************************\n\n- Duration: 1h 51mn\n\n- Bit rate: 1320 Kbps\n\n- Res: 720 x 302\n\n- AR: 2.40:1\n\n- FPS: 23.976 fps\n\n- Audio: AC3, 2 channels, 128Kbps\n\n************************************\n\n\nGeneral\n----------------\nFormat : AVI\nFormat/Info : Audio Video Interleave\nFile size : 1.13 GiB\nDuration : 1h 51mn\nOverall bit rate : 1458 Kbps\nWriting library : VirtualDub build 35491\n\n\nVideo\n-----------\nFormat : MPEG-4 Visual\nFormat profile : Advanced Simple@L5\nFormat settings, BVOP : 2\nFormat settings, QPel : No\nFormat settings, GMC : No warppoints\nFormat settings, Matrix : Default (H.263)\nCodec ID : XVID\nCodec ID/Hint : XviD\nDuration : 1h 51mn\nBit rate : 1320 Kbps\nWidth : 720 pixels\nHeight : 302 pixels\nDisplay aspect ratio : 2.40:1\nFrame rate : 23.976 fps\nColor space : YUV\nChroma subsampling : 4:2:0\nBit depth : 8 bits\nScan type : Progressive\nCompression mode : Lossy\nBits/(Pixel*Frame) : 0.253\nStream size : 1.03 GiB (91%)\nWriting library : XviD 65\n\n\nAudio\n----------\nFormat : AC-3\nFormat/Info : Audio Coding 3\nMode extension : CM (complete main)\nFormat settings, Endianness : Big\nCodec ID : 2000\nDuration : 1h 51mn\nBit rate mode : Constant\nBit rate : 128 Kbps\nChannel(s) : 2 channels\nChannel positions : Front: L R\nSampling rate : 48.0 KHz\nBit depth : 16 bits\nCompression mode : Lossy\nStream size : 102 MiB (9%)\nAlignment : Aligned on interleaves\nInterleave, duration : 42 ms (1.00 video frame)\nInterleave, preload duration : 512 ms","torrent":{"xt":"urn:btih:83171ee83eddb3886ac0613c26b4e94d250963e3","amp;dn":"The+Invisible+Woman+2013+BRRip+XviD+titler","amp;tr":["udp%3A%2F%2Ftracker.openbittorrent.com%3A80","udp%3A%2F%2Fopen.demonii.com%3A1337","udp%3A%2F%2Ftracker.coppersurfer.tk%3A6969","udp%3A%2F%2Fexodus.desync.com%3A6969"],"infoHash":"83171ee83eddb3886ac0613c26b4e94d250963e3","infoHashBuffer":{"type":"Buffer","data":[131,23,30,232,62,221,179,136,106,192,97,60,38,180,233,77,37,9,99,227]},"announce":[],"urlList":[]}}